<svg width="42" height="40" viewBox="0 0 42 40" fill="none" xmlns="http://www.w3.org/2000/svg">
<g id="invision 1" clip-path="url(#clip0_265_40)">
<path id="Vector" d="M38.1926 0H3.8074C1.70461 0 0 1.62344 0 3.62609V36.3739C0 38.3766 1.70461 40 3.8074 40H38.1926C40.2954 40 42 38.3766 42 36.3739V3.62609C42 1.62344 40.2954 0 38.1926 0Z" fill="#DC395F"/>
<path id="Vector_2" d="M14.0362 12.5852C15.4324 12.5852 16.602 11.543 16.602 10.1771C16.602 8.81205 15.4324 7.77002 14.0362 7.77002C12.64 7.77002 11.4708 8.81205 11.4708 10.1771C11.4708 11.5428 12.64 12.5852 14.0362 12.5852ZM8.71631 25.4789C8.56554 26.0899 8.4899 26.7496 8.4899 27.2877C8.4899 29.4081 9.69724 30.8158 12.263 30.8158C14.3909 30.8158 16.116 29.6124 17.3581 27.6691L16.5997 30.568H20.8251L23.2401 21.3431C23.8439 19.0075 25.0135 17.7952 26.787 17.7952C28.183 17.7952 29.0507 18.6221 29.0507 19.9871C29.0507 20.3825 29.013 20.8133 28.862 21.2806L27.6168 25.5208C27.4281 26.1317 27.353 26.743 27.353 27.3175C27.353 29.3305 28.5977 30.8028 31.2012 30.8028C33.4274 30.8028 35.2006 29.438 36.1817 26.1678L34.5217 25.5575C33.6915 27.7483 32.9746 28.1444 32.4086 28.1444C31.8426 28.1444 31.5407 27.7853 31.5407 27.0671C31.5407 26.7436 31.6165 26.3847 31.7294 25.9525L32.937 21.8216C33.2387 20.8516 33.3521 19.9914 33.3521 19.2011C33.3521 16.1108 31.3899 14.498 29.013 14.498C26.787 14.498 24.5229 16.4103 23.3912 18.423L24.221 14.8105H17.7694L16.8638 17.9924H19.8824L18.0236 25.0799C16.5639 28.1702 13.8826 28.2203 13.5461 28.1486C12.9936 28.0299 12.6402 27.83 12.6402 27.1463C12.6402 26.7517 12.7157 26.185 12.9043 25.5017L15.7344 14.8105H8.56554L7.65991 17.9924H10.6404L8.71631 25.4789Z" fill="white"/>
</g>
<defs>
<clipPath id="clip0_265_40">
<rect width="42" height="40" fill="white"/>
</clipPath>
</defs>
</svg>
