<svg width="42" height="40" viewBox="0 0 42 40" fill="none" xmlns="http://www.w3.org/2000/svg">
<g id="Sketch_Logo 1" clip-path="url(#clip0_265_23)">
<g id="Page-1">
<g id="sketch-symbol">
<path id="Path" d="M9.14516 1.31631L20.9577 0L32.7702 1.31631L41.9153 14.2563L20.9577 39.9801L0 14.2563L9.14516 1.31631Z" fill="#FDB300"/>
<g id="Group">
<path id="Path_2" d="M8.4889 14.2563L20.9577 39.9802L0 14.2563H8.4889Z" fill="#EA6C00"/>
<path id="Path_3" d="M33.4264 14.2563L20.9576 39.9802L41.9153 14.2563H33.4264Z" fill="#EA6C00"/>
<path id="Path_4" d="M8.48889 14.2563H33.4264L20.9577 39.9802L8.48889 14.2563Z" fill="#FDAD00"/>
</g>
<g id="Group_2">
<path id="Path_5" d="M20.9577 0L9.14511 1.31629L8.48889 14.2563L20.9577 0Z" fill="#FDD231"/>
<path id="Path_6" d="M20.9576 0L32.7702 1.31629L33.4264 14.2563L20.9576 0Z" fill="#FDD231"/>
<path id="Path_7" d="M41.9154 14.2564L32.7702 1.31641L33.4265 14.2564H41.9154Z" fill="#FDAD00"/>
<path id="Path_8" d="M0 14.2564L9.14513 1.31641L8.4889 14.2564H0Z" fill="#FDAD00"/>
<path id="Path_9" d="M20.9577 0L8.48889 14.2563H33.4264L20.9577 0Z" fill="#FEEEB7"/>
</g>
</g>
</g>
</g>
<defs>
<clipPath id="clip0_265_23">
<rect width="42" height="40" fill="white"/>
</clipPath>
</defs>
</svg>
